<svg width="139" height="122" viewBox="0 0 139 122" fill="none" xmlns="http://www.w3.org/2000/svg">
<path d="M68.2384 29.4473L79.4689 50.0527L90.7237 29.4473V69.8281H86.1827V51.5664L86.3048 46.6592L83.7169 51.6152L79.4933 59.3057V59.3545L79.4689 59.3301V59.3057L75.2208 51.5908L72.6329 46.6592L72.7794 51.5176V69.8281H68.2384V29.4473Z" fill="black"/>
<path d="M119.145 64.5924C124.705 62.8616 128.254 64.4639 129.79 69.3992C130.49 71.6482 130.381 74.4916 129.464 77.9293C128.61 81.3476 126.853 84.841 124.195 88.4095C118.007 96.7087 108.666 102.803 96.1716 106.693C83.7395 110.563 71.7634 109.734 60.2433 104.206C54.5867 101.444 49.4623 97.42 44.8701 92.1339C40.3209 86.7659 36.8892 80.3648 34.575 72.9306C30.1215 58.6243 31.1862 45.2043 37.7691 32.6705C44.3519 20.1367 54.8589 11.6236 69.2901 7.13125C73.2259 5.90606 77.3874 5.29587 81.7746 5.30069C81.5524 5.02722 81.4024 4.76554 81.3246 4.51565L80.6829 2.45405C80.3134 1.26707 80.4867 -0.157414 81.2028 -1.8194C81.9619 -3.5633 83.2474 -4.71724 85.0591 -5.28121C88.3076 -6.29248 90.9686 -5.33913 93.0419 -2.42116L95.1874 0.508603C97.9119 3.97764 101.868 7.44023 107.055 10.8964C112.286 14.2706 115.261 17.1134 115.981 19.4249C116.7 21.7364 116.671 23.7329 115.892 25.4143C115.113 27.0957 113.756 28.2379 111.819 28.8407C108.133 29.9881 103.484 28.5915 97.8717 24.651C90.8861 20.0414 82.5204 19.2535 72.7747 22.2873C63.0289 25.3211 56.1256 31.102 52.0647 39.63C48.0663 48.1385 47.6618 57.5155 50.8512 67.7611C54.0211 77.9441 59.6202 85.1439 67.6484 89.3603C75.7196 93.4949 84.3157 94.1425 93.4367 91.3032C105.744 87.472 112.468 81.3357 113.609 72.8943C114.551 68.2154 116.396 65.4481 119.145 64.5924Z" fill="#FA00FF"/>
</svg>
